<mxfile host="app.diagrams.net" modified="2023-02-16T10:45:36.741Z" agent="5.0 (Windows)" etag="Uiqo3nN7SCFl8J9ZQnfi" version="20.8.20" type="github">
  <diagram name="Strona-1" id="w0PGZA-4FGbOV46r9v52">
    <mxGraphModel dx="1434" dy="739" grid="1" gridSize="10" guides="1" tooltips="1" connect="1" arrows="1" fold="1" page="1" pageScale="1" pageWidth="827" pageHeight="1169" math="0" shadow="0">
      <root>
        <mxCell id="0" />
        <mxCell id="1" parent="0" />
        <mxCell id="KbCV_EKZ7tQ6PFwqo9xI-1" value="&lt;div&gt;a=[1,3,3,1,4,2,1,3]&lt;/div&gt;&lt;div&gt;[1:[3],3:[3],4:[1],2:[1]]&lt;br&gt;&lt;/div&gt;" style="text;html=1;align=center;verticalAlign=middle;resizable=0;points=[];autosize=1;strokeColor=none;fillColor=none;" vertex="1" parent="1">
          <mxGeometry x="205" y="40" width="130" height="40" as="geometry" />
        </mxCell>
        <mxCell id="KbCV_EKZ7tQ6PFwqo9xI-3" style="edgeStyle=orthogonalEdgeStyle;rounded=0;orthogonalLoop=1;jettySize=auto;html=1;exitX=0.5;exitY=1;exitDx=0;exitDy=0;" edge="1" parent="1" source="KbCV_EKZ7tQ6PFwqo9xI-2">
          <mxGeometry relative="1" as="geometry">
            <mxPoint x="470" y="200" as="targetPoint" />
          </mxGeometry>
        </mxCell>
        <mxCell id="KbCV_EKZ7tQ6PFwqo9xI-2" value="start" style="ellipse;whiteSpace=wrap;html=1;" vertex="1" parent="1">
          <mxGeometry x="430" y="60" width="80" height="80" as="geometry" />
        </mxCell>
        <mxCell id="KbCV_EKZ7tQ6PFwqo9xI-5" style="edgeStyle=orthogonalEdgeStyle;rounded=0;orthogonalLoop=1;jettySize=auto;html=1;exitX=0.5;exitY=1;exitDx=0;exitDy=0;" edge="1" parent="1" source="KbCV_EKZ7tQ6PFwqo9xI-4">
          <mxGeometry relative="1" as="geometry">
            <mxPoint x="470" y="300" as="targetPoint" />
          </mxGeometry>
        </mxCell>
        <mxCell id="KbCV_EKZ7tQ6PFwqo9xI-4" value="&lt;div&gt;wynik=0&lt;/div&gt;&lt;div&gt;i=1&lt;br&gt;&lt;/div&gt;" style="whiteSpace=wrap;html=1;" vertex="1" parent="1">
          <mxGeometry x="410" y="200" width="120" height="60" as="geometry" />
        </mxCell>
        <mxCell id="KbCV_EKZ7tQ6PFwqo9xI-8" style="edgeStyle=orthogonalEdgeStyle;rounded=0;orthogonalLoop=1;jettySize=auto;html=1;exitX=1;exitY=0.5;exitDx=0;exitDy=0;" edge="1" parent="1" source="KbCV_EKZ7tQ6PFwqo9xI-7">
          <mxGeometry relative="1" as="geometry">
            <mxPoint x="620" y="340" as="targetPoint" />
          </mxGeometry>
        </mxCell>
        <mxCell id="KbCV_EKZ7tQ6PFwqo9xI-11" style="edgeStyle=orthogonalEdgeStyle;rounded=0;orthogonalLoop=1;jettySize=auto;html=1;exitX=0.5;exitY=1;exitDx=0;exitDy=0;" edge="1" parent="1" source="KbCV_EKZ7tQ6PFwqo9xI-7">
          <mxGeometry relative="1" as="geometry">
            <mxPoint x="470" y="430" as="targetPoint" />
          </mxGeometry>
        </mxCell>
        <mxCell id="KbCV_EKZ7tQ6PFwqo9xI-7" value="i&amp;lt;=n" style="rhombus;whiteSpace=wrap;html=1;" vertex="1" parent="1">
          <mxGeometry x="430" y="300" width="80" height="80" as="geometry" />
        </mxCell>
        <mxCell id="KbCV_EKZ7tQ6PFwqo9xI-9" value="nie" style="text;html=1;align=center;verticalAlign=middle;resizable=0;points=[];autosize=1;strokeColor=none;fillColor=none;" vertex="1" parent="1">
          <mxGeometry x="560" y="315" width="40" height="30" as="geometry" />
        </mxCell>
        <mxCell id="KbCV_EKZ7tQ6PFwqo9xI-10" value="stop" style="ellipse;whiteSpace=wrap;html=1;" vertex="1" parent="1">
          <mxGeometry x="620" y="300" width="80" height="80" as="geometry" />
        </mxCell>
        <mxCell id="KbCV_EKZ7tQ6PFwqo9xI-14" style="edgeStyle=orthogonalEdgeStyle;rounded=0;orthogonalLoop=1;jettySize=auto;html=1;exitX=1;exitY=0.5;exitDx=0;exitDy=0;entryX=1;entryY=0.5;entryDx=0;entryDy=0;" edge="1" parent="1" source="KbCV_EKZ7tQ6PFwqo9xI-12" target="KbCV_EKZ7tQ6PFwqo9xI-15">
          <mxGeometry relative="1" as="geometry">
            <mxPoint x="610" y="680" as="targetPoint" />
            <Array as="points">
              <mxPoint x="630" y="470" />
              <mxPoint x="630" y="680" />
            </Array>
          </mxGeometry>
        </mxCell>
        <mxCell id="KbCV_EKZ7tQ6PFwqo9xI-17" style="edgeStyle=orthogonalEdgeStyle;rounded=0;orthogonalLoop=1;jettySize=auto;html=1;exitX=0.5;exitY=1;exitDx=0;exitDy=0;entryX=0.5;entryY=0;entryDx=0;entryDy=0;" edge="1" parent="1" source="KbCV_EKZ7tQ6PFwqo9xI-12" target="KbCV_EKZ7tQ6PFwqo9xI-16">
          <mxGeometry relative="1" as="geometry" />
        </mxCell>
        <mxCell id="KbCV_EKZ7tQ6PFwqo9xI-12" value="a[i] = wynik" style="rhombus;whiteSpace=wrap;html=1;" vertex="1" parent="1">
          <mxGeometry x="430" y="430" width="80" height="80" as="geometry" />
        </mxCell>
        <mxCell id="KbCV_EKZ7tQ6PFwqo9xI-13" value="tak" style="text;html=1;align=center;verticalAlign=middle;resizable=0;points=[];autosize=1;strokeColor=none;fillColor=none;" vertex="1" parent="1">
          <mxGeometry x="480" y="375" width="40" height="30" as="geometry" />
        </mxCell>
        <mxCell id="KbCV_EKZ7tQ6PFwqo9xI-19" style="edgeStyle=orthogonalEdgeStyle;rounded=0;orthogonalLoop=1;jettySize=auto;html=1;exitX=0;exitY=0.5;exitDx=0;exitDy=0;entryX=0;entryY=0.5;entryDx=0;entryDy=0;" edge="1" parent="1" source="KbCV_EKZ7tQ6PFwqo9xI-15" target="KbCV_EKZ7tQ6PFwqo9xI-7">
          <mxGeometry relative="1" as="geometry" />
        </mxCell>
        <mxCell id="KbCV_EKZ7tQ6PFwqo9xI-15" value="i= i+1" style="whiteSpace=wrap;html=1;" vertex="1" parent="1">
          <mxGeometry x="410" y="650" width="120" height="60" as="geometry" />
        </mxCell>
        <mxCell id="KbCV_EKZ7tQ6PFwqo9xI-18" style="edgeStyle=orthogonalEdgeStyle;rounded=0;orthogonalLoop=1;jettySize=auto;html=1;exitX=0.5;exitY=1;exitDx=0;exitDy=0;entryX=0.5;entryY=0;entryDx=0;entryDy=0;" edge="1" parent="1" source="KbCV_EKZ7tQ6PFwqo9xI-16" target="KbCV_EKZ7tQ6PFwqo9xI-15">
          <mxGeometry relative="1" as="geometry" />
        </mxCell>
        <mxCell id="KbCV_EKZ7tQ6PFwqo9xI-16" value="wynik=wynik+1" style="whiteSpace=wrap;html=1;" vertex="1" parent="1">
          <mxGeometry x="410" y="540" width="120" height="60" as="geometry" />
        </mxCell>
      </root>
    </mxGraphModel>
  </diagram>
</mxfile>
